<?xml version="1.0" encoding="utf-8"?>
<svg version="1.1" id="Layer_1" xmlns:dc="http://purl.org/dc/elements/1.1/" xmlns:xl="http://www.w3.org/1999/xlink"
	 xmlns="http://www.w3.org/2000/svg" xmlns:xlink="http://www.w3.org/1999/xlink" x="0px" y="0px" width="814px" height="481px"
	 viewBox="0 0 814 481" style="enable-background:new 0 0 814 481;" xml:space="preserve">
<style type="text/css">
	.st0{fill:#E1F6FE;}
	.st1{fill:none;}
	.st2{fill:#757575;}
	.st3{font-family:'Roboto-Regular';}
	.st4{font-size:10px;}
	.st5{fill:#FFFFFF;}
	.st6{clip-path:url(#SVGID_2_);fill:none;stroke:#DFDFDF;stroke-width:2;stroke-linecap:round;stroke-linejoin:round;}
	.st7{fill:#616161;}
	.st8{clip-path:url(#SVGID_4_);fill:none;stroke:#DFDFDF;stroke-width:2;stroke-linecap:round;stroke-linejoin:round;}
	.st9{fill:#212121;}
	.st10{font-size:12px;}
	.st11{fill:#4285F4;}
	.st12{fill-opacity:7.000000e-02;}
	.st13{clip-path:url(#SVGID_6_);fill:none;stroke:#DFDFDF;stroke-width:2;stroke-linecap:round;stroke-linejoin:round;}
	.st14{clip-path:url(#SVGID_8_);fill:none;stroke:#DFDFDF;stroke-width:2;stroke-linecap:round;stroke-linejoin:round;}
	.st15{font-family:'ArialMT';}
	.st16{clip-path:url(#SVGID_10_);fill:none;stroke:#DFDFDF;stroke-width:2;stroke-linecap:round;stroke-linejoin:round;}
	.st17{clip-path:url(#SVGID_12_);fill:none;stroke:#DFDFDF;stroke-width:2;stroke-linecap:round;stroke-linejoin:round;}
	.st18{clip-path:url(#SVGID_14_);fill:none;stroke:#DFDFDF;stroke-width:2;stroke-linecap:round;stroke-linejoin:round;}
	.st19{clip-path:url(#SVGID_16_);fill:none;stroke:#DFDFDF;stroke-width:2;stroke-linecap:round;stroke-linejoin:round;}
	.st20{clip-path:url(#SVGID_18_);fill:none;stroke:#DFDFDF;stroke-width:2;stroke-linecap:round;stroke-linejoin:round;}
	.st21{clip-path:url(#SVGID_20_);fill:none;stroke:#DFDFDF;stroke-width:2;stroke-linecap:round;stroke-linejoin:round;}
	.st22{clip-path:url(#SVGID_22_);fill:none;stroke:#DFDFDF;stroke-width:2;stroke-linecap:round;stroke-linejoin:round;}
	.st23{clip-path:url(#SVGID_24_);fill:none;stroke:#DFDFDF;stroke-width:2;stroke-linecap:round;stroke-linejoin:round;}
	.st24{fill:#DDE7F6;}
	.st25{fill:#BCD0EC;}
</style>
<g id="Canvas_2">
	<g id="Canvas_x5F_2:_Layer_1">
		<g id="Group_433">
			<g id="Graphic_286">
				<rect x="120.6" y="105" class="st0" width="165.4" height="271"/>
				<rect x="120.6" y="105" class="st1" width="165.4" height="271"/>
				<text transform="matrix(1 0 0 1 130.6429 129)" class="st2 st3 st4">Serving Static content</text>
			</g>
			<g id="Group_162">
				<g id="Graphic_164">
					<rect y="206" class="st5" width="99" height="93"/>
					<g>
						<g>
							<defs>
								<rect id="SVGID_1_" y="206" width="99" height="93"/>
							</defs>
							<clipPath id="SVGID_2_">
								<use xlink:href="#SVGID_1_"  style="overflow:visible;"/>
							</clipPath>
							<rect y="206" class="st6" width="99" height="93"/>
						</g>
					</g>
				</g>
				<g id="Graphic_163">
					<path class="st7" d="M56.6,250.7c2.9,0,5.4-2.4,5.4-5.4s-2.4-5.4-5.4-5.4c-2.9,0-5.4,2.4-5.4,5.4S53.7,250.7,56.6,250.7z
						 M42.4,250.7c2.9,0,5.4-2.4,5.4-5.4s-2.4-5.4-5.4-5.4c-2.9,0-5.4,2.4-5.4,5.4S39.4,250.7,42.4,250.7z M42.4,254.3
						c-4.2,0-12.5,2.1-12.5,6.2v4.5h25v-4.5C54.9,256.4,46.5,254.3,42.4,254.3z M56.6,254.3c-0.5,0-1.1,0-1.7,0.1
						c2.1,1.5,3.5,3.5,3.5,6.2v4.5h10.7v-4.5C69.1,256.4,60.8,254.3,56.6,254.3z"/>
				</g>
			</g>
			<g id="Group_354">
				<g id="Graphic_363">
					<rect x="140.6" y="224.4" class="st5" width="125.4" height="56"/>
					<g>
						<g>
							<defs>
								<rect id="SVGID_3_" x="140.6" y="224.4" width="125.4" height="56"/>
							</defs>
							<clipPath id="SVGID_4_">
								<use xlink:href="#SVGID_3_"  style="overflow:visible;"/>
							</clipPath>
							<rect x="140.6" y="224.4" class="st8" width="125.4" height="56"/>
						</g>
					</g>
					<text transform="matrix(1 0 0 1 191.6429 256.375)" class="st9 st3 st10">App Engine</text>
				</g>
				<g id="Group_355">
					<g id="Graphic_362">
						<path class="st11" d="M184.3,251.1l-5.8-10c-0.5-0.8-1.3-1.3-2.2-1.3h-11.5c-0.9,0-1.7,0.5-2.2,1.3l-5.8,10
							c-0.5,0.8-0.4,1.8,0,2.5l5.8,10.1c0.5,0.8,1.3,1.3,2.2,1.3h11.5c0.9,0,1.7-0.6,2.2-1.3l5.8-10
							C184.8,252.8,184.7,251.8,184.3,251.1"/>
					</g>
					<g id="Graphic_361">
						<path class="st12" d="M178.8,251.9h-0.2l-7.6-7.6l-1.6,2.3l1.3,1.3l-3.3,1.2l-1.3,3.3l-1.3-1.3l-2.3,2l11.8,11.8h2.1
							c0.9,0,1.7-0.6,2.2-1.3l4.4-7.6L178.8,251.9z"/>
					</g>
					<g id="Graphic_360">
						<path class="st5" d="M170.6,256.2c-2.1,0-3.8-1.7-3.8-3.8s1.7-3.8,3.8-3.8s3.8,1.7,3.8,3.8
							C174.5,254.5,172.8,256.2,170.6,256.2 M170.6,247.3c-2.8,0-5,2.3-5,5c0,2.8,2.3,5,5,5s5-2.3,5-5
							C175.7,249.6,173.4,247.3,170.6,247.3"/>
					</g>
					<g id="Graphic_359">
						<path class="st5" d="M178.5,251.8l-2.1-0.7c0.1,0.4,0.1,0.8,0.1,1.3c0,0.3,0,0.6-0.1,0.9h2c0.2-0.1,0.3-0.2,0.3-0.3v-0.8
							C178.9,251.9,178.7,251.8,178.5,251.8"/>
					</g>
					<g id="Graphic_358">
						<path class="st5" d="M170.6,246.4c0.4,0,0.8,0,1.2,0.1l-0.8-2.1c-0.1-0.2-0.2-0.3-0.3-0.3h-0.3c-0.2,0-0.3,0.1-0.3,0.3
							l-0.7,2.1C169.8,246.5,170.2,246.4,170.6,246.4"/>
					</g>
					<g id="Graphic_357">
						<path class="st5" d="M164.7,252.4c0-0.4,0-0.9,0.1-1.3l-2.1,0.7c-0.2,0.1-0.3,0.2-0.3,0.3v0.8c0,0.2,0.1,0.3,0.3,0.3h2
							C164.7,253,164.7,252.7,164.7,252.4"/>
					</g>
					<g id="Graphic_356">
						<path class="st5" d="M171.5,253.2c-0.2,0.2-0.5,0.3-0.8,0.3s-0.6-0.1-0.8-0.3c-0.5-0.4-0.5-1.2,0-1.6c0.2-0.2,0.5-0.3,0.8-0.3
							s0.6,0.1,0.8,0.3C171.9,252,171.9,252.7,171.5,253.2 M172.4,250.7l-0.5,0.5c-0.3-0.3-0.8-0.5-1.3-0.5s-0.9,0.2-1.3,0.5
							c-0.7,0.7-0.7,1.9,0,2.6l-0.5,0.5c0.5,0.5,1.1,0.7,1.8,0.7c1.4,0,2.5-1.1,2.5-2.5C173.2,251.8,172.9,251.2,172.4,250.7"/>
					</g>
				</g>
			</g>
			<g id="Group_344">
				<g id="Graphic_353">
					<rect x="140.6" y="148.8" class="st5" width="125" height="56"/>
					<g>
						<g>
							<defs>
								<rect id="SVGID_5_" x="140.6" y="148.8" width="125" height="56"/>
							</defs>
							<clipPath id="SVGID_6_">
								<use xlink:href="#SVGID_5_"  style="overflow:visible;"/>
							</clipPath>
							<rect x="140.6" y="148.8" class="st13" width="125" height="56"/>
						</g>
					</g>
					<text transform="matrix(1 0 0 1 191.6429 180.75)" class="st9 st3 st10">Cloud CDN</text>
				</g>
				<g id="Group_345">
					<g id="Graphic_352">
						<path class="st11" d="M184.3,175.5l-5.8-10c-0.5-0.8-1.3-1.3-2.2-1.3h-11.5c-0.9,0-1.7,0.5-2.2,1.3l-5.8,10
							c-0.5,0.8-0.4,1.8,0,2.5l5.8,10.1c0.5,0.8,1.3,1.3,2.2,1.3h11.5c0.9,0,1.7-0.6,2.2-1.3l5.8-10
							C184.8,177.2,184.7,176.2,184.3,175.5"/>
					</g>
					<g id="Graphic_351">
						<path class="st12" d="M173,171.7l-2.5-0.9l-2.2,2.7l1.5,1.5l-0.8,0.8l-1.5-1.5l-2.8,2.2l1,2.5l10.2,10.2h0.6
							c0.9,0,1.7-0.6,2.2-1.3l3.9-6.8L173,171.7z"/>
					</g>
					<g id="Graphic_350">
						<path class="st5" d="M170.6,169.3l-2.4,2.4v1.8l2.4-2.4l2.4,2.4v-1.8L170.6,169.3z"/>
					</g>
					<g id="Graphic_349">
						<path class="st5" d="M170.6,184.2l-2.4-2.4V180l2.4,2.4l2.4-2.4v1.8L170.6,184.2z"/>
					</g>
					<g id="Graphic_348">
						<path class="st5" d="M163.2,176.8l2.4,2.4h1.8l-2.4-2.4l2.4-2.4h-1.8L163.2,176.8z"/>
					</g>
					<g id="Graphic_347">
						<path class="st5" d="M178.1,176.8l-2.4,2.4h-1.8l2.4-2.4l-2.4-2.4h1.8L178.1,176.8z"/>
					</g>
					<g id="Graphic_346">
						<path class="st5" d="M168.2,178.9v-4.4c0-0.1,0.1-0.2,0.2-0.2h4.4c0.1,0,0.2,0.1,0.2,0.2v4.4c0,0.1-0.1,0.2-0.2,0.2h-4.4
							C168.3,179.2,168.2,179.1,168.2,178.9"/>
					</g>
				</g>
			</g>
			<g id="Group_337">
				<g id="Graphic_343">
					<rect x="142" y="300" class="st5" width="125" height="56"/>
					<g>
						<g>
							<defs>
								<rect id="SVGID_7_" x="142" y="300" width="125" height="56"/>
							</defs>
							<clipPath id="SVGID_8_">
								<use xlink:href="#SVGID_7_"  style="overflow:visible;"/>
							</clipPath>
							<rect x="142" y="300" class="st14" width="125" height="56"/>
						</g>
					</g>
					<text transform="matrix(1 0 0 1 193 325)" class="st9 st3 st10">Cloud</text>
					<text transform="matrix(1 0 0 1 224.084 325)" class="st9 st15 st10"> </text>
					<text transform="matrix(1 0 0 1 193 339)" class="st9 st3 st10">Storage</text>
				</g>
				<g id="Group_338">
					<g id="Graphic_342">
						<path class="st11" d="M185.7,326.7l-5.8-10c-0.5-0.8-1.3-1.3-2.2-1.3h-11.5c-0.9,0-1.7,0.5-2.2,1.3l-5.8,10
							c-0.5,0.8-0.4,1.8,0,2.5l5.8,10.1c0.5,0.8,1.3,1.3,2.2,1.3h11.5c0.9,0,1.7-0.6,2.2-1.3l5.8-10
							C186.1,328.4,186.1,327.5,185.7,326.7"/>
					</g>
					<g id="Graphic_341">
						<path class="st12" d="M176.7,325.1l-7.9,0.7l-1.5,1.5l1.3,1.3l-1.3,2.3l9.7,9.7h0.8c0.9,0,1.7-0.6,2.2-1.3l4-7L176.7,325.1z"
							/>
					</g>
					<g id="Graphic_340">
						<path class="st5" d="M175.1,326.7c-0.3,0-0.5-0.2-0.5-0.5s0.2-0.5,0.5-0.5s0.5,0.2,0.5,0.5
							C175.7,326.5,175.4,326.7,175.1,326.7 M176.5,325h-9.1c-0.1,0-0.3,0.1-0.3,0.3v1.9c0,0.1,0.1,0.3,0.3,0.3h9.1
							c0.1,0,0.3-0.1,0.3-0.3v-1.9C176.8,325.1,176.7,325,176.5,325"/>
					</g>
					<g id="Graphic_339">
						<path class="st5" d="M175.1,330.3c-0.3,0-0.5-0.2-0.5-0.5s0.2-0.5,0.5-0.5s0.5,0.2,0.5,0.5
							C175.7,330.1,175.4,330.3,175.1,330.3 M176.5,328.6h-9.1c-0.1,0-0.3,0.1-0.3,0.3v1.9c0,0.1,0.1,0.3,0.3,0.3h9.1
							c0.1,0,0.3-0.1,0.3-0.3v-1.9C176.8,328.7,176.7,328.6,176.5,328.6"/>
					</g>
				</g>
			</g>
			<g id="Graphic_193">
				<rect x="326" class="st0" width="304" height="192"/>
				<rect x="326" class="st1" width="304" height="192"/>
				<text transform="matrix(1 0 0 1 336 24)" class="st2 st3 st4">Serving Dynamic content</text>
			</g>
			<g id="Group_290">
				<g id="Graphic_292">
					<rect x="346" y="44" class="st5" width="125" height="54"/>
					<g>
						<g>
							<defs>
								<rect id="SVGID_9_" x="346" y="44" width="125" height="54"/>
							</defs>
							<clipPath id="SVGID_10_">
								<use xlink:href="#SVGID_9_"  style="overflow:visible;"/>
							</clipPath>
							<rect x="346" y="44" class="st16" width="125" height="54"/>
						</g>
					</g>
					<text transform="matrix(1 0 0 1 387 75)" class="st9 st3 st10">Memcache</text>
				</g>
				<g id="Graphic_291">
					<path class="st7" d="M380,68.3v-1.8h-1.8v-1.8c0-1-0.8-1.8-1.8-1.8h-10.8c-1,0-1.8,0.8-1.8,1.8v1.8H362v1.8h1.8v1.8H362v1.8
						h1.8v1.8H362v1.8h1.8v1.8c0,1,0.8,1.8,1.8,1.8h10.8c1,0,1.8-0.8,1.8-1.8v-1.8h1.8v-1.8h-1.8v-1.8h1.8v-1.8h-1.8v-1.8H380z
						 M368.3,77.3l2.1-6.3h-3.9l7.2-6.3l-2,6.3h3.8L368.3,77.3z"/>
				</g>
			</g>
			<g id="Group_293">
				<g id="Graphic_303">
					<rect x="346" y="118" class="st5" width="125" height="54"/>
					<g>
						<g>
							<defs>
								<rect id="SVGID_11_" x="346" y="118" width="125" height="54"/>
							</defs>
							<clipPath id="SVGID_12_">
								<use xlink:href="#SVGID_11_"  style="overflow:visible;"/>
							</clipPath>
							<rect x="346" y="118" class="st17" width="125" height="54"/>
						</g>
					</g>
					<text transform="matrix(1 0 0 1 387 149)" class="st9 st3 st10">Task Queues</text>
				</g>
				<g id="Group_294">
					<g id="Graphic_302">
						<rect x="363" y="151" class="st7" width="3" height="3"/>
					</g>
					<g id="Graphic_301">
						<rect x="363" y="146" class="st7" width="3" height="3"/>
					</g>
					<g id="Graphic_300">
						<rect x="363" y="141" class="st7" width="3" height="3"/>
					</g>
					<g id="Graphic_299">
						<rect x="363" y="136" class="st7" width="3" height="3"/>
					</g>
					<g id="Graphic_298">
						<rect x="368" y="151" class="st7" width="11" height="3"/>
					</g>
					<g id="Graphic_297">
						<rect x="368" y="146" class="st7" width="11" height="3"/>
					</g>
					<g id="Graphic_296">
						<rect x="368" y="141" class="st7" width="11" height="3"/>
					</g>
					<g id="Graphic_295">
						<rect x="368" y="136" class="st7" width="11" height="3"/>
					</g>
				</g>
			</g>
			<g id="Group_382">
				<g id="Graphic_392">
					<rect x="491" y="42" class="st5" width="119" height="56"/>
					<g>
						<g>
							<defs>
								<rect id="SVGID_13_" x="491" y="42" width="119" height="56"/>
							</defs>
							<clipPath id="SVGID_14_">
								<use xlink:href="#SVGID_13_"  style="overflow:visible;"/>
							</clipPath>
							<rect x="491" y="42" class="st18" width="119" height="56"/>
						</g>
					</g>
					<text transform="matrix(1 0 0 1 542 67)" class="st9 st3 st10">Cloud</text>
					<text transform="matrix(1 0 0 1 573.084 67)" class="st9 st15 st10"> </text>
					<text transform="matrix(1 0 0 1 542 81)" class="st9 st3 st10">Datastore</text>
				</g>
				<g id="Group_383">
					<g id="Graphic_391">
						<path class="st11" d="M534.7,68.7l-5.8-10c-0.5-0.8-1.3-1.3-2.2-1.3h-11.5c-0.9,0-1.7,0.5-2.2,1.3l-5.8,10
							c-0.5,0.8-0.4,1.8,0,2.5l5.8,10.1c0.5,0.8,1.3,1.3,2.2,1.3h11.5c0.9,0,1.7-0.6,2.2-1.3l5.8-10
							C535.1,70.4,535.1,69.5,534.7,68.7"/>
					</g>
					<g id="Graphic_390">
						<path class="st12" d="M525.7,67.1l-2.1,0.2v1.3l-1.5-1.5l-2,0.2v1.3l-1.6-1.6l-2.2,2.2l1.4,1.4h-1.3v2.2l9.7,9.7h0.8
							c0.9,0,1.7-0.6,2.2-1.3l4-7L525.7,67.1z"/>
					</g>
					<g id="Graphic_389">
						<path class="st5" d="M518.3,67h-1.9c-0.1,0-0.3,0.1-0.3,0.3v1.9c0,0.1,0.1,0.3,0.3,0.3h1.9c0.1,0,0.3-0.1,0.3-0.3v-1.9
							C518.6,67.1,518.5,67,518.3,67"/>
					</g>
					<g id="Graphic_388">
						<path class="st5" d="M521.9,70.6H520c-0.1,0-0.3,0.1-0.3,0.3v1.9c0,0.1,0.1,0.3,0.3,0.3h1.9c0.1,0,0.3-0.1,0.3-0.3v-1.9
							C522.2,70.7,522.1,70.6,521.9,70.6"/>
					</g>
					<g id="Graphic_387">
						<path class="st5" d="M525.5,70.6h-1.9c-0.1,0-0.3,0.1-0.3,0.3v1.9c0,0.1,0.1,0.3,0.3,0.3h1.9c0.1,0,0.3-0.1,0.3-0.3v-1.9
							C525.8,70.7,525.7,70.6,525.5,70.6"/>
					</g>
					<g id="Graphic_386">
						<path class="st5" d="M518.3,70.6c0.1,0,0.3,0.1,0.3,0.3v1.9c0,0.1-0.1,0.3-0.3,0.3h-1.9c-0.1,0-0.3-0.1-0.3-0.3v-1.9
							c0-0.1,0.1-0.3,0.3-0.3H518.3z M516.7,72.5h1.3v-1.3h-1.3V72.5z"/>
					</g>
					<g id="Graphic_385">
						<path class="st5" d="M521.9,67c0.1,0,0.3,0.1,0.3,0.3v1.9c0,0.1-0.1,0.3-0.3,0.3H520c-0.1,0-0.3-0.1-0.3-0.3v-1.9
							c0-0.1,0.1-0.3,0.3-0.3H521.9z M520.3,68.9h1.3v-1.3h-1.3V68.9z"/>
					</g>
					<g id="Graphic_384">
						<path class="st5" d="M525.5,67c0.1,0,0.3,0.1,0.3,0.3v1.9c0,0.1-0.1,0.3-0.3,0.3h-1.9c-0.1,0-0.3-0.1-0.3-0.3v-1.9
							c0-0.1,0.1-0.3,0.3-0.3H525.5z M523.9,68.9h1.3v-1.3h-1.3V68.9z"/>
					</g>
				</g>
			</g>
			<g id="Graphic_251">
				<rect x="326" y="212" class="st0" width="488" height="269"/>
				<rect x="326" y="212" class="st1" width="488" height="269"/>
				<text transform="matrix(1 0 0 1 336 236)" class="st2 st3 st4">Log processing &amp; monitoring</text>
			</g>
			<g id="Group_304">
				<g id="Graphic_310">
					<rect x="513" y="329" class="st5" width="114" height="56"/>
					<g>
						<g>
							<defs>
								<rect id="SVGID_15_" x="513" y="329" width="114" height="56"/>
							</defs>
							<clipPath id="SVGID_16_">
								<use xlink:href="#SVGID_15_"  style="overflow:visible;"/>
							</clipPath>
							<rect x="513" y="329" class="st19" width="114" height="56"/>
						</g>
					</g>
					<text transform="matrix(1 0 0 1 564 354)" class="st9 st3 st10">Cloud</text>
					<text transform="matrix(1 0 0 1 595.084 354)" class="st9 st15 st10"> </text>
					<text transform="matrix(1 0 0 1 564 368)" class="st9 st3 st10">Storage</text>
				</g>
				<g id="Group_305">
					<g id="Graphic_309">
						<path class="st11" d="M556.7,355.7l-5.8-10c-0.5-0.8-1.3-1.3-2.2-1.3h-11.5c-0.9,0-1.7,0.5-2.2,1.3l-5.8,10
							c-0.5,0.8-0.4,1.8,0,2.5l5.8,10.1c0.5,0.8,1.3,1.3,2.2,1.3h11.5c0.9,0,1.7-0.6,2.2-1.3l5.8-10
							C557.1,357.4,557.1,356.5,556.7,355.7"/>
					</g>
					<g id="Graphic_308">
						<path class="st12" d="M547.7,354.1l-7.9,0.7l-1.5,1.5l1.3,1.3l-1.3,2.3l9.7,9.7h0.8c0.9,0,1.7-0.6,2.2-1.3l4-7L547.7,354.1z"
							/>
					</g>
					<g id="Graphic_307">
						<path class="st5" d="M546.1,355.7c-0.3,0-0.5-0.2-0.5-0.5s0.2-0.5,0.5-0.5s0.5,0.2,0.5,0.5
							C546.7,355.5,546.4,355.7,546.1,355.7 M547.5,354h-9.1c-0.1,0-0.3,0.1-0.3,0.3v1.9c0,0.1,0.1,0.3,0.3,0.3h9.1
							c0.1,0,0.3-0.1,0.3-0.3v-1.9C547.8,354.1,547.7,354,547.5,354"/>
					</g>
					<g id="Graphic_306">
						<path class="st5" d="M546.1,359.3c-0.3,0-0.5-0.2-0.5-0.5s0.2-0.5,0.5-0.5s0.5,0.2,0.5,0.5
							C546.7,359.1,546.4,359.3,546.1,359.3 M547.5,357.6h-9.1c-0.1,0-0.3,0.1-0.3,0.3v1.9c0,0.1,0.1,0.3,0.3,0.3h9.1
							c0.1,0,0.3-0.1,0.3-0.3v-1.9C547.8,357.7,547.7,357.6,547.5,357.6"/>
					</g>
				</g>
			</g>
			<g id="Group_311">
				<g id="Graphic_325">
					<rect x="346" y="256.8" class="st5" width="147" height="56"/>
					<g>
						<g>
							<defs>
								<rect id="SVGID_17_" x="346" y="256.8" width="147" height="56"/>
							</defs>
							<clipPath id="SVGID_18_">
								<use xlink:href="#SVGID_17_"  style="overflow:visible;"/>
							</clipPath>
							<rect x="346" y="256.8" class="st20" width="147" height="56"/>
						</g>
					</g>
					<text transform="matrix(1 0 0 1 397 288.75)" class="st9 st3 st10">Cloud Pub/Sub</text>
				</g>
				<g id="Group_312">
					<g id="Graphic_324">
						<path class="st11" d="M389.7,283.5l-5.8-10c-0.5-0.8-1.3-1.3-2.2-1.3h-11.5c-0.9,0-1.7,0.5-2.2,1.3l-5.8,10
							c-0.5,0.8-0.4,1.8,0,2.5l5.8,10.1c0.5,0.8,1.3,1.3,2.2,1.3h11.5c0.9,0,1.7-0.6,2.2-1.3l5.8-10
							C390.1,285.2,390.1,284.2,389.7,283.5"/>
					</g>
					<g id="Graphic_323">
						<path class="st12" d="M381.5,281.2l-1.3,0.3l-3.2-3.2l-1,1.9l-0.6,2.2l0.9,0.9l-1.8,0.4l-2.5-2.5l-1.7,1.6l3.1,3.1l-3.3,2.6
							l8.8,8.8h2.7c0.9,0,1.7-0.6,2.2-1.3l4.5-7.9L381.5,281.2z"/>
					</g>
					<g id="Graphic_322">
						<path class="st5" d="M380.1,281c0.6-0.3,1.3-0.1,1.6,0.4c0.3,0.6,0.1,1.3-0.4,1.6c-0.6,0.3-1.3,0.1-1.6-0.4
							S379.6,281.3,380.1,281"/>
					</g>
					<g id="Graphic_321">
						<path class="st5" d="M370.7,283c-0.6-0.3-0.7-1-0.4-1.6c0.3-0.6,1-0.7,1.6-0.4c0.6,0.3,0.7,1,0.4,1.6S371.3,283.4,370.7,283"
							/>
					</g>
					<g id="Graphic_320">
						<path class="st5" d="M377.2,290.2c0,0.6-0.5,1.2-1.2,1.2s-1.2-0.5-1.2-1.2s0.5-1.2,1.2-1.2S377.2,289.5,377.2,290.2"/>
					</g>
					<g id="Graphic_319">
						<path class="st5" d="M376,282.3c0.2,0,0.4,0,0.5,0.1v-3.1h-1.1v3.1C375.6,282.4,375.8,282.3,376,282.3"/>
					</g>
					<g id="Graphic_318">
						<path class="st5" d="M378.3,285.5c-0.1,0.4-0.3,0.7-0.5,0.9l2.7,1.5l0.5-0.9L378.3,285.5z"/>
					</g>
					<g id="Graphic_317">
						<path class="st5" d="M373.7,285.5L371,287l0.5,0.9l2.7-1.5C374,286.1,373.8,285.8,373.7,285.5"/>
					</g>
					<g id="Graphic_316">
						<path class="st5" d="M377.9,284.7c0,1-0.8,1.9-1.9,1.9c-1,0-1.9-0.8-1.9-1.9c0-1,0.8-1.9,1.9-1.9
							C377,282.9,377.9,283.7,377.9,284.7"/>
					</g>
					<g id="Graphic_315">
						<path class="st5" d="M370.6,286.2c0.7-0.4,1.6-0.2,2,0.5s0.2,1.6-0.5,2s-1.6,0.2-2-0.5C369.6,287.5,369.8,286.6,370.6,286.2"
							/>
					</g>
					<g id="Graphic_314">
						<path class="st5" d="M380,288.7c-0.7-0.4-0.9-1.3-0.5-2s1.3-0.9,2-0.5s0.9,1.3,0.5,2C381.6,288.9,380.7,289.2,380,288.7"/>
					</g>
					<g id="Graphic_313">
						<path class="st5" d="M377.5,279.3c0,0.8-0.7,1.5-1.5,1.5s-1.5-0.7-1.5-1.5s0.7-1.5,1.5-1.5S377.5,278.5,377.5,279.3"/>
					</g>
				</g>
			</g>
			<g id="Group_326">
				<g id="Graphic_336">
					<rect x="513" y="256.8" class="st5" width="114" height="56"/>
					<g>
						<g>
							<defs>
								<rect id="SVGID_19_" x="513" y="256.8" width="114" height="56"/>
							</defs>
							<clipPath id="SVGID_20_">
								<use xlink:href="#SVGID_19_"  style="overflow:visible;"/>
							</clipPath>
							<rect x="513" y="256.8" class="st21" width="114" height="56"/>
						</g>
					</g>
					<text transform="matrix(1 0 0 1 564 281.75)" class="st9 st3 st10">Cloud</text>
					<text transform="matrix(1 0 0 1 595.084 281.75)" class="st9 st15 st10"> </text>
					<text transform="matrix(1 0 0 1 564 295.75)" class="st9 st3 st10">Dataflow</text>
				</g>
				<g id="Group_327">
					<g id="Graphic_335">
						<path class="st11" d="M556.7,283.5l-5.8-10c-0.5-0.8-1.3-1.3-2.2-1.3h-11.5c-0.9,0-1.7,0.5-2.2,1.3l-5.8,10
							c-0.5,0.8-0.4,1.8,0,2.5l5.8,10.1c0.5,0.8,1.3,1.3,2.2,1.3h11.5c0.9,0,1.7-0.6,2.2-1.3l5.8-10
							C557.1,285.2,557.1,284.2,556.7,283.5"/>
					</g>
					<g id="Graphic_334">
						<path class="st12" d="M546.6,278.5l-3.6,0.8l-3.6-0.8l2,2l-3.2,3l0.8,0.8l-0.8,1l1,1l-1,1.2l3,3l-1.8,0.5l6.3,6.3h3
							c0.9,0,1.7-0.6,2.2-1.3l4.8-8.3L546.6,278.5z"/>
					</g>
					<g id="Graphic_333">
						<path class="st5" d="M547.2,284c0.4,0,0.8,0.3,0.8,0.8c0,0.4-0.4,0.8-0.8,0.8c-0.4,0-0.8-0.4-0.8-0.8S546.8,284,547.2,284"/>
					</g>
					<g id="Graphic_332">
						<path class="st5" d="M538.8,284c0.4,0,0.8,0.3,0.8,0.8c0,0.4-0.4,0.8-0.8,0.8c-0.4,0-0.8-0.4-0.8-0.8S538.4,284,538.8,284"/>
					</g>
					<g id="Graphic_331">
						<path class="st5" d="M543,282.8c0.4,0,0.8,0.4,0.8,0.8s-0.4,0.8-0.8,0.8s-0.8-0.3-0.8-0.8C542.2,283.2,542.6,282.8,543,282.8"
							/>
					</g>
					<g id="Graphic_330">
						<path class="st5" d="M543,285.2c0.4,0,0.8,0.3,0.8,0.8c0,0.4-0.4,0.8-0.8,0.8s-0.8-0.4-0.8-0.8
							C542.2,285.5,542.6,285.2,543,285.2"/>
					</g>
					<g id="Graphic_329">
						<path class="st5" d="M544.2,279.9l2.4-1.4l-1.2-0.7l0,0l-2.4,1.4l-2.4-1.4l0,0l-1.2,0.7l2.4,1.4l-3.6,2.1v1.5h1.2v-0.8l3-1.7
							v1.3h1.2V281l3,1.7v0.8h1.2V282L544.2,279.9z"/>
					</g>
					<g id="Graphic_328">
						<path class="st5" d="M546.6,286.9l-3,1.7v-1.3h-1.2v1.3l-3-1.7v-0.8h-1.2v1.5l3.6,2.1l-2.4,1.4l1.2,0.7l0,0l2.4-1.4l2.4,1.4
							l0,0l1.2-0.7l-2.4-1.4l3.6-2.1v-1.5h-1.2L546.6,286.9L546.6,286.9z"/>
					</g>
				</g>
			</g>
			<g id="Group_364">
				<g id="Graphic_373">
					<rect x="513" y="405" class="st5" width="114" height="56"/>
					<g>
						<g>
							<defs>
								<rect id="SVGID_21_" x="513" y="405" width="114" height="56"/>
							</defs>
							<clipPath id="SVGID_22_">
								<use xlink:href="#SVGID_21_"  style="overflow:visible;"/>
							</clipPath>
							<rect x="513" y="405" class="st22" width="114" height="56"/>
						</g>
					</g>
					<text transform="matrix(1 0 0 1 564 437)" class="st9 st3 st10">BigQuery</text>
				</g>
				<g id="Group_365">
					<g id="Graphic_372">
						<path class="st11" d="M556.7,431.7l-5.8-10c-0.5-0.8-1.3-1.3-2.2-1.3h-11.5c-0.9,0-1.7,0.5-2.2,1.3l-5.8,10
							c-0.5,0.8-0.4,1.8,0,2.5l5.8,10.1c0.5,0.8,1.3,1.3,2.2,1.3h11.5c0.9,0,1.7-0.6,2.2-1.3l5.8-10
							C557.1,433.4,557.1,432.5,556.7,431.7"/>
					</g>
					<g id="Graphic_371">
						<path class="st12" d="M550.9,444.3l3.8-6.7l-8.1-8.1l-3.6-1l-3.3,1.2l-1.3,3.3l1,3.7l8.9,8.9h0.3
							C549.7,445.6,550.5,445,550.9,444.3"/>
					</g>
					<g id="Graphic_370">
						<path class="st5" d="M543,436.8c-2.1,0-3.8-1.7-3.8-3.8c0-2.1,1.7-3.9,3.8-3.9s3.8,1.7,3.8,3.9
							C546.8,435.1,545.1,436.8,543,436.8 M543,427.9c-2.8,0-5.1,2.3-5.1,5.1c0,2.8,2.3,5.1,5.1,5.1s5.1-2.3,5.1-5.1
							C548.1,430.2,545.8,427.9,543,427.9"/>
					</g>
					<g id="Graphic_369">
						<path class="st5" d="M540.6,432.8v1.6c0.2,0.4,0.6,0.7,1,1v-2.6H540.6z"/>
					</g>
					<g id="Graphic_368">
						<path class="st5" d="M542.5,431.5v4.2c0.2,0,0.3,0,0.5,0s0.3,0,0.5,0v-4.3L542.5,431.5L542.5,431.5z"/>
					</g>
					<g id="Graphic_367">
						<path class="st5" d="M544.5,433.5v1.9c0.4-0.3,0.7-0.6,1-1v-0.8h-1V433.5z"/>
					</g>
					<g id="Graphic_366">
						<path class="st5" d="M546.7,436.1l-0.5,0.5c-0.1,0.1-0.1,0.2,0,0.3l2,2c0.1,0.1,0.2,0.1,0.3,0l0.5-0.5c0.1-0.1,0.1-0.2,0-0.3
							l-2-2C546.9,436,546.7,436,546.7,436.1"/>
					</g>
				</g>
			</g>
			<g id="Group_374">
				<g id="Graphic_381">
					<rect x="667" y="329" class="st5" width="127" height="56"/>
					<g>
						<g>
							<defs>
								<rect id="SVGID_23_" x="667" y="329" width="127" height="56"/>
							</defs>
							<clipPath id="SVGID_24_">
								<use xlink:href="#SVGID_23_"  style="overflow:visible;"/>
							</clipPath>
							<rect x="667" y="329" class="st23" width="127" height="56"/>
						</g>
					</g>
					<text transform="matrix(1 0 0 1 718 361)" class="st9 st3 st10">Stackdriver</text>
				</g>
				<g id="Group_375">
					<g id="Graphic_380">
						<path class="st11" d="M710.7,355.7l-5.8-10c-0.5-0.8-1.3-1.3-2.2-1.3h-11.5c-0.9,0-1.7,0.5-2.2,1.3l-5.8,10
							c-0.5,0.8-0.4,1.8,0,2.5l5.8,10.1c0.5,0.8,1.3,1.3,2.2,1.3h11.5c0.9,0,1.7-0.6,2.2-1.3l5.8-10
							C711.1,357.4,711.1,356.5,710.7,355.7"/>
					</g>
					<g id="Graphic_379">
						<path class="st12" d="M700.5,351.7l-0.1,0.5l-0.9-0.9l-5.5,0.8l-3.6,4.4l1.3,1.3l-1.1-0.3l2.8,5.1l7.5,6.9h1.8
							c0.9,0,1.7-0.6,2.2-1.3l4.4-7.7L700.5,351.7z"/>
					</g>
					<g id="Graphic_378">
						<path class="st24" d="M703.6,357l-3-5.3l-3,5.3l3,5.3L703.6,357z"/>
					</g>
					<g id="Graphic_377">
						<path class="st25" d="M690.4,357.4l3,5.2h6.1l-3-5.2H690.4z"/>
					</g>
					<g id="Graphic_376">
						<path class="st5" d="M696.5,356.6l3.1-5.3h-6.1l-3,5.3H696.5z"/>
					</g>
				</g>
			</g>
			<g id="Graphic_422">
				<path class="st7" d="M304,252l-38-0.1c-0.3,0-0.5,0.2-0.5,0.5s0.2,0.5,0.5,0.5l38,0.1c0.3,0,0.5-0.2,0.5-0.5S304.3,252,304,252z
					"/>
			</g>
			<g id="Graphic_423">
				<path class="st7" d="M202.6,204.8v9.7c0,0.3,0.2,0.5,0.5,0.5s0.5-0.2,0.5-0.5v-9.7c0-0.3-0.2-0.5-0.5-0.5
					C202.9,204.2,202.6,204.5,202.6,204.8z M203.6,222.5v-8h-1v8H203.6z M206.8,218.1l-4,4h0.7l-4-4l-0.7,0.7l4,4l0.4,0.4l0.4-0.4
					l4-4L206.8,218.1z"/>
			</g>
			<g id="Graphic_424">
				<path class="st7" d="M99,253h10l21.7,0.2c0.3,0,0.5-0.2,0.5-0.5s-0.2-0.5-0.5-0.5L109,252H99c-0.3,0-0.5,0.2-0.5,0.5
					S98.7,253,99,253z M138.7,252.3l-8-0.1v1l8,0.1V252.3z M134.4,249.1l4,4v-0.7l-4,4l0.7,0.7l4-4l0.4-0.3l-0.3-0.4l-4-4
					L134.4,249.1z"/>
			</g>
			<g id="Graphic_425">
				<path class="st7" d="M50,206v-10v-16v-3.2l-0.5,0.5h76.2h5c0.3,0,0.5-0.2,0.5-0.5s-0.2-0.5-0.5-0.5h-5H49.5
					c-0.3,0-0.5,0.2-0.5,0.5v3.2v16v10c0,0.3,0.2,0.5,0.5,0.5S50,206.3,50,206z M138.7,176.2h-8v1h8V176.2z M134.4,173.1l4,4v-0.7
					l-4,4l0.7,0.7l4-4l0.4-0.4l-0.4-0.4l-4-4L134.4,173.1z"/>
			</g>
			<g id="Graphic_426">
				<path class="st7" d="M316.1,346H304l0.5,0.5V97l-0.5,0.5l12.1-0.1c0.3,0,0.5-0.2,0.5-0.5s-0.2-0.5-0.5-0.5L304,96.5
					c-0.3,0-0.5,0.2-0.5,0.5v249.5c0,0.3,0.2,0.5,0.5,0.5h12.1c0.3,0,0.5-0.2,0.5-0.5S316.4,346,316.1,346z M324.1,96.4h-8v1h8V96.4
					z M319.7,93.3l4,4v-0.7l-4,4l0.7,0.7l4-4l0.4-0.4l-0.4-0.4l-4-4L319.7,93.3z M324.1,346h-8v1h8V346z M319.7,342.9l4,4v-0.7l-4,4
					l0.7,0.7l4-4l0.4-0.4l-0.4-0.4l-4-4L319.7,342.9z"/>
			</g>
			<g id="Graphic_427">
				<path class="st7" d="M493,285.2h10.1c0.3,0,0.5-0.2,0.5-0.5s-0.2-0.5-0.5-0.5H493c-0.3,0-0.5,0.2-0.5,0.5S492.7,285.2,493,285.2
					z M511.1,284.2h-8v1h8V284.2z M506.7,281.1l4,4v-0.7l-4,4l0.7,0.7l4-4l0.4-0.4l-0.4-0.4l-4-4L506.7,281.1z"/>
			</g>
			<g id="Graphic_428">
				<path class="st7" d="M569.5,385v10.1c0,0.3,0.2,0.5,0.5,0.5s0.5-0.2,0.5-0.5V385c0-0.3-0.2-0.5-0.5-0.5S569.5,384.7,569.5,385z
					 M570.5,403.1v-8h-1v8H570.5z M573.6,398.7l-4,4h0.7l-4-4l-0.7,0.7l4,4l0.4,0.4l0.4-0.4l4-4L573.6,398.7z"/>
			</g>
			<g id="Graphic_429">
				<path class="st7" d="M569.5,312.8v6.3c0,0.3,0.2,0.5,0.5,0.5s0.5-0.2,0.5-0.5v-6.3c0-0.3-0.2-0.5-0.5-0.5
					S569.5,312.5,569.5,312.8z M570.5,327.1v-8h-1v8H570.5z M573.6,322.7l-4,4h0.7l-4-4l-0.7,0.7l4,4l0.4,0.4l0.4-0.4l4-4
					L573.6,322.7z"/>
			</g>
			<g id="Graphic_430">
				<path class="st7" d="M627,433.5h17c0.3,0,0.5-0.2,0.5-0.5l0.3-149c0-0.3-0.2-0.5-0.5-0.5l-17.3,0.2c-0.3,0-0.5,0.2-0.5,0.5
					s0.2,0.5,0.5,0.5l17.3-0.2l-0.5-0.5l-0.3,149l0.5-0.5h-17c-0.3,0-0.5,0.2-0.5,0.5S626.7,433.5,627,433.5z"/>
			</g>
			<g id="Graphic_431">
				<path class="st7" d="M644.2,359.6l13-0.3c0.3,0,0.5-0.2,0.5-0.5s-0.2-0.5-0.5-0.5l-13,0.3c-0.3,0-0.5,0.2-0.5,0.5
					S643.9,359.6,644.2,359.6z M665.1,358.1l-8,0.2v1l8-0.2V358.1z M660.7,355.1l4.1,3.9v-0.7l-3.9,4.1l0.7,0.7l3.9-4.1l0.3-0.4
					l-0.4-0.3l-4.1-3.9L660.7,355.1z"/>
			</g>
			<g id="Graphic_432">
				<path class="st7" d="M471,145.5h10h62h7.5c0.3,0,0.5-0.2,0.5-0.5v-32.1v-5c0-0.3-0.2-0.5-0.5-0.5s-0.5,0.2-0.5,0.5v5V145
					l0.5-0.5H543h-62h-10c-0.3,0-0.5,0.2-0.5,0.5S470.7,145.5,471,145.5z M550,99.9v8h1v-8H550z M546.9,104.3l4-4h-0.7l4,4l0.7-0.7
					l-4-4l-0.4-0.4l-0.4,0.4l-4,4L546.9,104.3z"/>
			</g>
		</g>
	</g>
</g>
</svg>
