<svg xmlns="http://www.w3.org/2000/svg" viewBox="198 125 1027 448.5" width="1027" height="448.5"><defs><clipPath id="a"><path d="M951 170h114v56H951z"/></clipPath><clipPath id="b"><path d="M951 246h114v56H951z"/></clipPath><clipPath id="c"><path d="M951 322h116v56H951z"/></clipPath><clipPath id="d"><path d="M356 213.5h303v96H356z"/></clipPath><clipPath id="e"><path d="M375.5 233.5h127v56h-127z"/></clipPath><clipPath id="f"><path d="M522.5 233.5h117v54h-117z"/></clipPath><clipPath id="g"><path d="M198 158.5h118v93H198z"/></clipPath><clipPath id="h"><path d="M198 271.5h118v93H198z"/></clipPath><clipPath id="i"><path d="M735 233.5h119v56H735z"/></clipPath><clipPath id="j"><path d="M454 460.5h99v93h-99z"/></clipPath><clipPath id="k"><path d="M573 460.5h99v93h-99z"/></clipPath><clipPath id="l"><path d="M692 460.5h99v93h-99z"/></clipPath><clipPath id="m"><path d="M811 460.5h99v93h-99z"/></clipPath><clipPath id="n"><path d="M335 460.5h99v93h-99z"/></clipPath><marker orient="auto" overflow="visible" id="o" stroke-miterlimit="10" viewBox="-1 -5 10 10" markerWidth="10" markerHeight="10" color="#616161"><path d="M8 0H0m4-4l4 4-4 4" fill="none" stroke="currentColor"/></marker><clipPath id="p"><path d="M735 307.5h119v56H735z"/></clipPath><clipPath id="q"><path d="M1107 215h118v93h-118z"/></clipPath></defs><g fill="none"><path fill="#e1f6fe" d="M931 125h156v273H931z"/><path d="M931 125h156v273H931z"/><text transform="translate(941 140)" fill="#757575"><tspan font-family="Roboto" font-size="10" font-weight="400" x="0" y="9">Data processing &amp; Analysis</tspan></text><path fill="#fff" d="M951 170h114v56H951z"/><path stroke="#dfdfdf" stroke-linecap="round" stroke-linejoin="round" stroke-width="2" clip-path="url(#a)" d="M951 170h114v56H951z"/><text transform="translate(1002 184)" fill="#212121"><tspan font-family="Roboto" font-size="12" font-weight="400" x="0" y="11">Cloud </tspan> <tspan font-family="Roboto" font-size="12" font-weight="400" x="0" y="25">Pub/Sub</tspan></text><path d="M994.666 196.714l-5.754-10.006c-.461-.8-1.297-1.286-2.158-1.286h-11.508c-.922 0-1.727.54-2.158 1.285l-5.754 9.986a2.51 2.51 0 0 0 0 2.502l5.754 10.052c.46.798 1.297 1.331 2.158 1.331h11.508c.922 0 1.727-.581 2.158-1.326l5.754-10.006a2.566 2.566 0 0 0 0-2.532" fill="#4285f4"/><path d="M986.517 194.444l-1.282.266-3.195-3.194-1.021 1.911-.555 2.211.938.939-1.801.368-2.472-2.471-1.678 1.613 3.09 3.089-3.275 2.604 8.8 8.798h2.688c.922 0 1.727-.581 2.158-1.326l4.532-7.881z" fill="#000" fill-opacity=".07"/><path d="M985.125 194.274a1.164 1.164 0 1 1 1.166 2.015 1.164 1.164 0 0 1-1.166-2.015" fill="#fff"/><path d="M975.71 196.29a1.165 1.165 0 1 1 1.165-2.018 1.165 1.165 0 0 1-1.165 2.018" fill="#fff"/><path d="M982.165 203.435a1.164 1.164 0 1 1-2.329 0 1.164 1.164 0 0 1 2.329 0" fill="#fff"/><path d="M981 195.58c.185 0 .365.023.538.062v-3.079h-1.075v3.08c.173-.04.352-.063.537-.063" fill="#fff"/><g><path d="M983.312 198.714a2.41 2.41 0 0 1-.54.93l2.666 1.54.538-.932z" fill="#fff"/></g><g><path d="M978.688 198.714l-2.664 1.538.538.931 2.666-1.54a2.408 2.408 0 0 1-.54-.93" fill="#fff"/></g><g><path d="M982.882 198a1.88 1.88 0 1 1-3.762 0 1.88 1.88 0 0 1 3.762 0" fill="#fff"/></g><g><path d="M975.554 199.437A1.48 1.48 0 1 1 977.03 202a1.48 1.48 0 0 1-1.477-2.563" fill="#fff"/></g><g><path d="M984.969 201.997a1.479 1.479 0 1 1 1.48-2.558 1.479 1.479 0 0 1-1.48 2.558" fill="#fff"/></g><g><path d="M982.478 192.564a1.479 1.479 0 1 1-2.957 0 1.479 1.479 0 0 1 2.957 0" fill="#fff"/></g><g><path fill="#fff" d="M951 246h114v56H951z"/><path stroke="#dfdfdf" stroke-linecap="round" stroke-linejoin="round" stroke-width="2" clip-path="url(#b)" d="M951 246h114v56H951z"/><text transform="translate(1002 260)" fill="#212121"><tspan font-family="Roboto" font-size="12" font-weight="400" x="0" y="11">Cloud</tspan> <tspan font-family="Roboto" font-size="12" font-weight="400" x="0" y="25">Dataflow</tspan></text><g><path d="M994.666 272.714l-5.754-10.006c-.461-.8-1.297-1.286-2.158-1.286h-11.508c-.922 0-1.727.54-2.158 1.285l-5.754 9.986a2.51 2.51 0 0 0 0 2.502l5.754 10.052c.46.798 1.297 1.331 2.158 1.331h11.508c.922 0 1.727-.581 2.158-1.326l5.754-10.006a2.566 2.566 0 0 0 0-2.532" fill="#4285f4"/><path d="M984.58 267.798l-3.553.834-3.608-.834 1.981 1.98-3.202 2.953.847.846-.787 1.01.988.987-1.048 1.212 3.017 3.016-1.796.455 6.321 6.321h3.014c.922 0 1.727-.581 2.158-1.326l4.79-8.332z" fill="#000" fill-opacity=".07"/><path d="M985.19 273.25a.782.782 0 1 1 0 1.565.782.782 0 0 1 0-1.565" fill="#fff"/><path d="M976.81 273.25a.782.782 0 1 1 0 1.564.782.782 0 0 1 0-1.564" fill="#fff"/><g><path d="M981 272.077a.783.783 0 1 1 0 1.566.783.783 0 0 1 0-1.566" fill="#fff"/></g><g><path d="M981 274.423a.782.782 0 1 1 0 1.565.782.782 0 0 1 0-1.565" fill="#fff"/></g><g><path d="M982.179 269.185l2.402-1.387-1.163-.671h-.032L981 268.504l-2.386-1.377h-.032l-1.163.671 2.402 1.387-3.623 2.08v1.466h1.236v-.786l2.972-1.737v1.276h1.188v-1.276l2.966 1.737v.786h1.242v-1.466z" fill="#fff"/></g><g><path d="M984.56 276.106l-2.966 1.737v-1.262h-1.189v1.262l-2.97-1.737v-.786h-1.237v1.466l3.626 2.082-2.404 1.389 1.162.671h.032L981 279.55l2.386 1.378h.032l1.163-.671-2.406-1.389 3.627-2.082v-1.466h-1.242z" fill="#fff"/></g></g></g><g><path fill="#fff" d="M951 322h116v56H951z"/><path stroke="#dfdfdf" stroke-linecap="round" stroke-linejoin="round" stroke-width="2" clip-path="url(#c)" d="M951 322h116v56H951z"/><text transform="translate(1002 343)" fill="#212121"><tspan font-family="Roboto" font-size="12" font-weight="400" x="0" y="11">BigQuery</tspan></text><g><path d="M994.666 348.714l-5.754-10.006c-.461-.8-1.297-1.286-2.158-1.286h-11.508c-.922 0-1.727.54-2.158 1.285l-5.754 9.986a2.51 2.51 0 0 0 0 2.502l5.754 10.052c.46.798 1.297 1.331 2.158 1.331h11.508c.922 0 1.727-.581 2.158-1.326l5.754-10.006a2.566 2.566 0 0 0 0-2.532" fill="#4285f4"/><path d="M988.912 361.252l3.835-6.67-8.11-8.11L981 345.5l-3.266 1.213-1.262 3.287 1.014 3.66 8.92 8.918h.348c.922 0 1.727-.581 2.158-1.326" fill="#000" fill-opacity=".07"/><path d="M981 353.85a3.85 3.85 0 1 1 0-7.7 3.85 3.85 0 0 1 0 7.7m0-8.924a5.074 5.074 0 1 0 0 10.147 5.074 5.074 0 0 0 0-10.147" fill="#fff"/><path d="M978.592 349.804v1.577c.232.401.563.737.958.98v-2.557z" fill="#fff"/><g><path d="M980.491 348.475v4.246c.163.03.33.048.501.048.157 0 .309-.017.458-.042v-4.252z" fill="#fff"/></g><g><path d="M982.48 350.46v1.872c.4-.255.732-.608.959-1.028v-.844z" fill="#fff"/></g><g><path d="M984.651 353.125l-.525.527a.237.237 0 0 0 0 .335l1.993 1.994a.238.238 0 0 0 .336 0l.526-.526a.238.238 0 0 0 0-.335l-1.994-1.995a.238.238 0 0 0-.336 0" fill="#fff"/></g></g></g><g><path fill="#e1f6fe" d="M356 213.5h303v96H356z"/><path d="M356 213.5h303v96H356z" clip-path="url(#d)"/></g><g><path fill="#fff" d="M375.5 233.5h127v56h-127z"/><path stroke="#dfdfdf" stroke-linecap="round" stroke-linejoin="round" stroke-width="2" clip-path="url(#e)" d="M375.5 233.5h127v56h-127z"/><text transform="translate(426.5 254.5)" fill="#212121"><tspan font-family="Roboto" font-size="12" font-weight="400" x="0" y="11">App Engine</tspan></text><g><path d="M419.166 260.214l-5.754-10.006c-.461-.8-1.297-1.286-2.158-1.286h-11.508c-.922 0-1.727.54-2.158 1.285l-5.754 9.986a2.51 2.51 0 0 0 0 2.502l5.754 10.052c.46.798 1.297 1.331 2.158 1.331h11.508c.922 0 1.727-.581 2.158-1.326l5.754-10.006a2.566 2.566 0 0 0 0-2.532" fill="#4285f4"/><path d="M413.652 261.059l-.152-.046-7.632-7.633-1.567 2.29 1.313 1.313-3.34 1.217-1.306 3.321-1.28-1.281-2.309 2.027 11.811 11.811h2.064c.922 0 1.727-.581 2.158-1.326l4.357-7.577z" fill="#000" fill-opacity=".07"/><path d="M405.5 265.326a3.825 3.825 0 1 1 0-7.65 3.825 3.825 0 0 1 0 7.65m0-8.866a5.04 5.04 0 1 0-.001 10.081 5.04 5.04 0 0 0 0-10.081" fill="#fff"/><path d="M413.406 260.903l-2.101-.66a5.933 5.933 0 0 1 .068 2.144h2.033c.188-.054.314-.171.314-.344v-.795c0-.173-.126-.292-.314-.345" fill="#fff"/><g><path d="M405.498 255.561c.422 0 .834.045 1.232.128l-.754-2.094c-.055-.187-.172-.313-.345-.313h-.315c-.173 0-.293.126-.345.313l-.654 2.084a5.968 5.968 0 0 1 1.181-.118" fill="#fff"/></g><g><path d="M399.56 261.501c0-.432.047-.852.135-1.258l-2.102.66c-.188.053-.313.172-.313.346v.794c0 .173.125.29.313.344h2.033a5.942 5.942 0 0 1-.065-.886" fill="#fff"/></g><g><path d="M406.316 262.317c-.225.226-.521.338-.816.338a1.153 1.153 0 1 1 0-2.308 1.153 1.153 0 0 1 .816 1.97m.984-2.461l-.477.476a1.803 1.803 0 0 0-1.284-.532c-.486 0-.942.19-1.284.532a1.82 1.82 0 0 0 0 2.569l-.477.476c.451.45 1.074.73 1.76.73a2.494 2.494 0 0 0 2.492-2.492c0-.687-.28-1.308-.73-1.76" fill="#fff"/></g></g></g><g><path fill="#fff" d="M522.5 233.5h117v54h-117z"/><path stroke="#dfdfdf" stroke-linecap="round" stroke-linejoin="round" stroke-width="2" clip-path="url(#f)" d="M522.5 233.5h117v54h-117z"/><text transform="translate(563.5 253.5)" fill="#212121"><tspan font-family="Roboto" font-size="12" font-weight="400" x="0" y="11">Memcache</tspan></text><g><path d="M556.5 257.8V256h-1.8v-1.8c0-.99-.81-1.8-1.8-1.8h-10.8c-.99 0-1.8.81-1.8 1.8v1.8h-1.8v1.8h1.8v1.8h-1.8v1.8h1.8v1.8h-1.8v1.8h1.8v1.8c0 .99.81 1.8 1.8 1.8h10.8c.99 0 1.8-.81 1.8-1.8V265h1.8v-1.8h-1.8v-1.8h1.8v-1.8h-1.8v-1.8zm-11.7 9l2.115-6.3H543l7.2-6.3-1.98 6.3H552z" fill="#616161"/></g></g><g><path fill="#fff" d="M198 158.5h118v93H198z"/><path stroke="#dfdfdf" stroke-linecap="round" stroke-linejoin="round" stroke-width="2" clip-path="url(#g)" d="M198 158.5h118v93H198z"/><text transform="translate(202 214.5)" fill="#212121"><tspan font-family="Roboto" font-size="12" font-weight="400" x="27.206" y="11">Game App</tspan></text><g><path d="M261.09 182.5h-8.18c-.9 0-1.637.736-1.637 1.636v14.728c0 .9.736 1.636 1.636 1.636h8.182c.9 0 1.636-.736 1.636-1.636v-14.728c0-.9-.736-1.636-1.636-1.636zm0 14.727h-8.18v-11.454h8.18z" fill="#616161"/></g><g><path fill="#fff" d="M198 271.5h118v93H198z"/><path stroke="#dfdfdf" stroke-linecap="round" stroke-linejoin="round" stroke-width="2" clip-path="url(#h)" d="M198 271.5h118v93H198z"/><text transform="translate(202 327.5)" fill="#212121"><tspan font-family="Roboto" font-size="12" font-weight="400" x="20.828" y="11">Game Server</tspan></text><g><path d="M248 308.1v3.6h18v-3.6zm3.6 2.7h-1.8V309h1.8zM248 297.3v3.6h18v-3.6zm3.6 2.7h-1.8v-1.8h1.8zM248 302.7v3.6h18v-3.6zm3.6 2.7h-1.8v-1.8h1.8z" fill="#616161"/></g></g></g><g><path fill="#fff" d="M735 233.5h119v56H735z"/><path stroke="#dfdfdf" stroke-linecap="round" stroke-linejoin="round" stroke-width="2" clip-path="url(#i)" d="M735 233.5h119v56H735z"/><text transform="translate(786 247.5)" fill="#212121"><tspan font-family="Roboto" font-size="12" font-weight="400" x="0" y="11">Cloud</tspan> <tspan font-family="Roboto" font-size="12" font-weight="400" x="0" y="25">Datastore</tspan></text><g><path d="M778.666 260.214l-5.754-10.006c-.461-.8-1.297-1.286-2.158-1.286h-11.508c-.922 0-1.727.54-2.158 1.285l-5.754 9.986a2.51 2.51 0 0 0 0 2.502l5.754 10.052c.46.798 1.297 1.331 2.158 1.331h11.508c.922 0 1.727-.581 2.158-1.326l5.754-10.006a2.566 2.566 0 0 0 0-2.532" fill="#4285f4"/><path d="M769.706 258.59l-2.081.166.009 1.35-1.528-1.529-2.018.23-.004 1.335-1.554-1.554-2.238 2.242 1.39 1.39-1.349.05-.03 2.156 9.651 9.652h.8c.922 0 1.727-.581 2.158-1.326l4-6.956z" fill="#000" fill-opacity=".07"/><path d="M762.34 258.506l-1.86.001a.265.265 0 0 0-.265.264v1.87c0 .145.118.264.264.264h1.861c.146 0 .265-.119.265-.264v-1.87a.266.266 0 0 0-.264-.265" fill="#fff"/><path d="M765.93 262.095h-1.861a.266.266 0 0 0-.265.264v1.87c0 .145.12.264.265.264h1.861c.145 0 .265-.119.265-.264v-1.87a.266.266 0 0 0-.264-.264" fill="#fff"/><g><path d="M769.52 262.095h-1.861a.265.265 0 0 0-.264.264v1.87c0 .145.119.264.265.264h1.86c.146 0 .265-.119.265-.264v-1.87a.266.266 0 0 0-.264-.264" fill="#fff"/></g><g><path d="M762.34 262.095c.146 0 .265.12.265.264v1.87a.265.265 0 0 1-.264.264h-1.862a.266.266 0 0 1-.264-.264l-.001-1.87c0-.144.12-.264.265-.264zm-1.595 1.864h1.33v-1.33h-1.33z" fill="#fff"/></g><g><path d="M765.93 258.506c.146 0 .265.12.265.265v1.87c0 .145-.12.264-.264.264h-1.862a.266.266 0 0 1-.264-.264v-1.87c0-.145.118-.264.264-.264zm-1.595 1.865h1.33v-1.33h-1.33z" fill="#fff"/></g><g><path d="M769.52 258.506c.146 0 .265.12.265.265v1.87a.265.265 0 0 1-.264.264h-1.861a.266.266 0 0 1-.265-.264v-1.87c0-.145.119-.264.265-.264zm-1.595 1.865h1.33v-1.33h-1.33z" fill="#fff"/></g></g></g><g><path fill="#e2f3ec" d="M316 417.5h614v156H316z"/><path d="M316 417.5h614v156H316z"/><text transform="translate(326 432.5)" fill="#757575"><tspan font-family="Roboto" font-size="10" font-weight="400" x="0" y="9">Management</tspan></text><g><path fill="#fff" d="M454 460.5h99v93h-99z"/><path stroke="#dfdfdf" stroke-linecap="round" stroke-linejoin="round" stroke-width="2" clip-path="url(#j)" d="M454 460.5h99v93h-99z"/><text transform="translate(458 516.5)" fill="#212121"><tspan font-family="Roboto" font-size="12" font-weight="400" x="16.613" y="11">Monitoring</tspan></text><path d="M517.166 492.792l-5.754-10.006c-.461-.8-1.297-1.286-2.158-1.286h-11.508c-.922 0-1.727.54-2.158 1.285l-5.754 9.986a2.51 2.51 0 0 0 0 2.502l5.754 10.052c.46.798 1.297 1.331 2.157 1.331h11.509c.922 0 1.727-.581 2.158-1.326l5.754-10.006a2.566 2.566 0 0 0 0-2.532" fill="#4285f4"/><path d="M510.63 489.915l-10.343 1.948-4.026 3.366 1.303 1.303-1.194 1.088 9.036 9.036h3.847c.923 0 1.728-.581 2.159-1.325l5.342-9.292z" fill="#000" fill-opacity=".07"/><path d="M505.731 499.612h-4.408a.219.219 0 0 1-.219-.219v-.005c0-.12.098-.218.22-.218h4.407c.121 0 .22.098.22.218v.005c0 .121-.099.22-.22.22" fill="#fff"/><g><path fill="#fff" d="M502.68 497.47h1.694v1.921h-1.694z"/></g><g><path d="M508.239 496.04a.403.403 0 0 1-.29-.123l-2.972-3.079-1.998 2.1a.404.404 0 0 1-.546.037l-1.51-1.219-1.6 2.123a.403.403 0 0 1-.322.161h-2.742v1.245a.54.54 0 0 0 .538.539h13.46a.54.54 0 0 0 .54-.539v-1.245z" fill="#fff"/></g><g><path d="M498.8 495.232l1.73-2.295a.404.404 0 0 1 .576-.072l1.544 1.247 2.032-2.136a.404.404 0 0 1 .291-.126h.002c.11 0 .214.045.29.124l3.145 3.258h2.386v-4.946a.54.54 0 0 0-.538-.539h-13.461a.54.54 0 0 0-.538.539v4.946z" fill="#fff"/></g><g><path fill="#fff" d="M573 460.5h99v93h-99z"/><path stroke="#dfdfdf" stroke-linecap="round" stroke-linejoin="round" stroke-width="2" clip-path="url(#k)" d="M573 460.5h99v93h-99z"/><text transform="translate(577 516.5)" fill="#212121"><tspan font-family="Roboto" font-size="12" font-weight="400" x="23.984" y="11">Logging</tspan></text><g><path d="M636.166 492.792l-5.754-10.006c-.461-.8-1.297-1.286-2.158-1.286h-11.508c-.922 0-1.727.54-2.158 1.285l-5.754 9.986a2.51 2.51 0 0 0 0 2.502l5.754 10.052c.46.798 1.297 1.331 2.158 1.331h11.508c.922 0 1.727-.581 2.158-1.326l5.754-10.006a2.566 2.566 0 0 0 0-2.532" fill="#4285f4"/><path d="M629.063 488.39l-3.85 1.75h-3.588l-2.406-2.406-1.48 2.407h-.051l-1.75.875 1.673 1.673-.361 6.858 7.11 7.11h3.894c.922 0 1.727-.582 2.158-1.327l5.692-9.898z" fill="#000" fill-opacity=".07"/><path fill="#fff" d="M620.969 488.391h8.094v2.406h-8.094z"/><path fill="#fff" d="M617.688 494.078h3.5v.656h-3.5z"/><path fill="#fff" d="M620.969 493.203h8.094v2.406h-8.094z"/><g><path fill="#fff" d="M617.688 498.891h3.5v.656h-3.5z"/></g><g><path fill="#fff" d="M617.25 491.016h.656v8.531h-.656z"/></g><g><path fill="#fff" d="M615.938 487.734h3.281v3.281h-3.281z"/></g><g><path fill="#fff" d="M620.969 498.016h8.094v2.406h-8.094z"/></g></g></g><g><path fill="#fff" d="M692 460.5h99v93h-99z"/><path stroke="#dfdfdf" stroke-linecap="round" stroke-linejoin="round" stroke-width="2" clip-path="url(#l)" d="M692 460.5h99v93h-99z"/><text transform="translate(696 516.5)" fill="#212121"><tspan font-family="Roboto" font-size="12" font-weight="400" x="32.677" y="11">Error</tspan> <tspan font-family="Roboto" font-size="12" font-weight="400" x="19.569" y="25">Reporting</tspan></text><g><path d="M755.166 492.792l-5.754-10.006c-.461-.8-1.297-1.286-2.158-1.286h-11.508c-.922 0-1.727.54-2.158 1.285l-5.754 9.986a2.51 2.51 0 0 0 0 2.502l5.754 10.052c.46.798 1.297 1.331 2.158 1.331h11.508c.922 0 1.727-.581 2.158-1.326l5.754-10.006a2.566 2.566 0 0 0 0-2.532" fill="#4285f4"/><path d="M748.056 490.804l-5.406-2.132-1.154-1.148-5.284 2.828-.636 6.228 2.64 4.065 6.01 6.011h3.028c.922 0 1.727-.581 2.158-1.325l4.809-8.364z" fill="#000" fill-opacity=".07"/><path d="M739.035 498.896l-2.35-2.351v-4.92l2.35-2.351h.82l1.64-1.75h-3.28l-3.28 3.28v6.56l3.28 3.28h3.28l-1.64-1.748z" fill="#fff"/><g><path d="M744.776 487.524h-1.64l-1.64 1.75h2.46l2.35 2.35v4.92l-2.35 2.352h-2.46l1.64 1.75h1.64l3.28-3.281v-6.56z" fill="#fff"/></g><g><path d="M741.496 497.365l-1.64-1.64 1.64-1.64-1.64-1.64 1.64-1.64h-1.64l-1.64 1.64v3.28l1.64 1.64z" fill="#fff"/></g><g><path d="M743.136 490.804l-1.64 1.64 1.642 1.643-1.64 1.64 1.638 1.638 1.64-1.64v-3.28z" fill="#fff"/></g></g></g><g><path fill="#fff" d="M811 460.5h99v93h-99z"/><path stroke="#dfdfdf" stroke-linecap="round" stroke-linejoin="round" stroke-width="2" clip-path="url(#m)" d="M811 460.5h99v93h-99z"/><text transform="translate(815 516.5)" fill="#212121"><tspan font-family="Roboto" font-size="12" font-weight="400" x="30.591" y="11">Trace</tspan></text><g><path d="M874.166 492.792l-5.754-10.006c-.461-.8-1.297-1.286-2.158-1.286h-11.508c-.922 0-1.727.54-2.158 1.285l-5.754 9.986a2.51 2.51 0 0 0 0 2.502l5.754 10.052c.46.798 1.297 1.331 2.158 1.331h11.508c.922 0 1.727-.581 2.158-1.326l5.754-10.006a2.566 2.566 0 0 0 0-2.532" fill="#4285f4"/><path d="M868.412 505.33l4.094-7.12-5.443-5.445-2.372 1.348-6.597-6.598-4.156 2.625 4.088 4.088-4.088 1.162 4.897 4.898-.741.352 6.015 6.016h2.145c.922 0 1.727-.58 2.158-1.326" fill="#000" fill-opacity=".07"/><path fill="#fff" d="M853.938 492.766h13.125v2.625h-13.125z"/><g><path fill="#fff" d="M858.094 498.016h8.969v2.625h-8.969z"/></g><g><path fill="#fff" d="M853.938 487.516h4.156v2.625h-4.156z"/></g></g></g><g><path fill="#fff" d="M335 460.5h99v93h-99z"/><path stroke="#dfdfdf" stroke-linecap="round" stroke-linejoin="round" stroke-width="2" clip-path="url(#n)" d="M335 460.5h99v93h-99z"/><text transform="translate(339 516.5)" fill="#212121"><tspan font-family="Roboto" font-size="12" font-weight="400" x="15.646" y="11">Stackdriver</tspan></text><g><path d="M398.166 492.792l-5.754-10.006c-.461-.8-1.297-1.286-2.158-1.286h-11.508c-.922 0-1.727.54-2.158 1.285l-5.754 9.986a2.51 2.51 0 0 0 0 2.502l5.754 10.052c.46.798 1.297 1.331 2.158 1.331h11.508c.922 0 1.727-.581 2.158-1.326l5.754-10.006a2.566 2.566 0 0 0 0-2.532" fill="#4285f4"/><path d="M388.032 488.816l-.101.491-.91-.91-5.474.821-3.61 4.43 1.322 1.342-1.143-.314 2.841 5.097 7.485 6.883h1.811c.923 0 1.728-.581 2.159-1.326l4.42-7.688z" fill="#000" fill-opacity=".07"/><path d="M391.063 494.085l-3.03-5.269-3.031 5.27 3.03 5.268z" fill="#dde7f6"/><g><path d="M377.938 494.523l3.019 5.25h6.055l-3.02-5.25z" fill="#bcd0ec"/></g><g><path d="M383.953 493.648l3.068-5.25h-6.055l-3.028 5.25z" fill="#fff"/></g></g></g></g></g><g><path marker-end="url(#o)" stroke="#616161" stroke-linecap="round" stroke-linejoin="round" d="M659 261.5h66.1"/></g><g><path marker-end="url(#o)" stroke="#616161" stroke-linecap="round" stroke-linejoin="round" d="M854 261.5h66.1"/></g><g><path d="M316 205h15.5v113H316" stroke="#616161" stroke-linecap="round" stroke-linejoin="round"/></g><g><path d="M331.5 261.326H346.1" marker-end="url(#o)" stroke="#616161" stroke-linecap="round" stroke-linejoin="round"/></g><g><path d="M507.5 213.5v-15H664l277.1-.417" marker-end="url(#o)" stroke="#616161" stroke-linecap="round" stroke-linejoin="round"/></g><g><path d="M507.5 309.5v31h217.6" marker-end="url(#o)" stroke="#616161" stroke-linecap="round" stroke-linejoin="round"/></g><g><path marker-end="url(#o)" stroke="#616161" stroke-linecap="round" stroke-linejoin="round" d="M1087 261.5h10.1"/></g><g><path fill="#fff" d="M735 307.5h119v56H735z"/><path stroke="#dfdfdf" stroke-linecap="round" stroke-linejoin="round" stroke-width="2" clip-path="url(#p)" d="M735 307.5h119v56H735z"/><text transform="translate(786 328.5)" fill="#212121"><tspan font-family="Roboto" font-size="12" font-weight="400" x="0" y="11">Firebase</tspan></text><g><path d="M770.926 328.405a.582.582 0 0 0-.988-.315l-3.027 3.033-2.383-4.534a.583.583 0 0 0-1.033 0l-1.302 2.48-3.266-6.092c-.264-.493-1.004-.366-1.091.187l-3.158 20.212h.002l-.002.002 8.444 4.733a1.75 1.75 0 0 0 1.706.003l8.517-4.738z" fill="#000"/><path d="M754.678 343.375l3.16-20.213a.583.583 0 0 1 1.09-.185l3.267 6.093 1.302-2.48a.583.583 0 0 1 1.032 0l8.816 16.786z" fill="#ffa000"/><g><path d="M765.591 335.503l-3.398-6.435-7.515 14.308z" fill="#f57c00"/></g><g><path d="M773.345 343.376l-2.42-14.971a.582.582 0 0 0-.987-.315l-15.26 15.286 8.444 4.735a1.75 1.75 0 0 0 1.706.003z" fill="#ffca28"/></g><g><path d="M770.926 328.405a.582.582 0 0 0-.988-.315l-3.027 3.033-2.383-4.534a.583.583 0 0 0-1.033 0l-1.302 2.48-3.266-6.092c-.264-.493-1.004-.366-1.091.187l-3.158 20.212h-.011l.01.012.083.04 12.144-12.159 3.03-3.033a.584.584 0 0 1 .989.315l2.399 14.837.023-.012zm-16.22 14.943l3.131-20.04a.584.584 0 0 1 1.09-.187l3.268 6.093 1.302-2.48a.583.583 0 0 1 1.032 0l2.33 4.437z" fill="#fff" fill-opacity=".2"/></g><g><path d="M764.828 347.968a1.75 1.75 0 0 1-1.706-.002l-8.423-4.723-.02.133v.002l8.443 4.733a1.75 1.75 0 0 0 1.706.003l8.517-4.738-.022-.134z" fill="#d89100"/></g></g></g><g><path marker-end="url(#o)" stroke="#616161" stroke-linecap="round" stroke-linejoin="round" d="M1008 226v10.1"/></g><g><path marker-end="url(#o)" stroke="#616161" stroke-linecap="round" stroke-linejoin="round" d="M1008.368 302l.133 10.101"/></g><g><path fill="#fff" d="M1107 215h118v93h-118z"/><path stroke="#dfdfdf" stroke-linecap="round" stroke-linejoin="round" stroke-width="2" clip-path="url(#q)" d="M1107 215h118v93h-118z"/><text transform="translate(1111 271)" fill="#212121"><tspan font-family="Roboto" font-size="12" font-weight="400" x="15.221" y="11">Report &amp; Share</tspan></text><g><path d="M1166 245.031a1.969 1.969 0 1 1 0 3.937 1.969 1.969 0 0 1 0-3.937m0 8.438c2.784 0 5.719 1.369 5.719 1.969v1.03h-11.438v-1.03c0-.6 2.935-1.97 5.719-1.97m0-10.218a3.749 3.749 0 0 0-3.75 3.75 3.749 3.749 0 0 0 3.75 3.75 3.749 3.749 0 0 0 3.75-3.75 3.749 3.749 0 0 0-3.75-3.75zm0 8.438c-2.503 0-7.5 1.256-7.5 3.75v2.812h15v-2.813c0-2.493-4.997-3.75-7.5-3.75z" fill="#616161"/></g></g><g><path d="M316 205.5h15.5l-.5-.5v113l.5-.5H316a.5.5 0 0 0 0 1h15.5a.5.5 0 0 0 .5-.5V205a.5.5 0 0 0-.5-.5H316a.5.5 0 0 0 0 1z" fill="#616161"/></g><g><path d="M331.5 261.826H346.1a.5.5 0 0 0 0-1H331.5a.5.5 0 0 0 0 1zm22.6-1h-8v1h8zm-4.354-3.146l4 4v-.707l-4 4 .708.707 4-4 .353-.354-.353-.353-4-4z" fill="#616161"/></g><g><path d="M508 213.5v-15l-.5.5H664l277.1-.417a.5.5 0 0 0 0-1L664 198H507.5a.5.5 0 0 0-.5.5v15a.5.5 0 0 0 1 0zm441.1-15.93l-8 .013v1l8-.012zm-4.359-3.14l4.006 3.995-.001-.707-3.994 4.006.708.706 3.994-4.006.353-.354-.354-.353-4.006-3.994z" fill="#616161"/></g><g><path d="M659 262h66.1a.5.5 0 0 0 0-1H659a.5.5 0 0 0 0 1zm74.1-1h-8v1h8zm-4.354-3.146l4 4v-.708l-4 4 .708.708 4-4 .353-.354-.353-.354-4-4z" fill="#616161"/></g><g><path d="M854 262h66.1a.5.5 0 0 0 0-1H854a.5.5 0 0 0 0 1zm74.1-1h-8v1h8zm-4.354-3.146l4 4v-.708l-4 4 .708.708 4-4 .353-.354-.353-.354-4-4z" fill="#616161"/></g><g><path d="M507 309.5v31a.5.5 0 0 0 .5.5h217.6a.5.5 0 0 0 0-1H507.5l.5.5v-31a.5.5 0 0 0-1 0zM733.1 340h-8v1h8zm-4.354-3.146l4 4v-.708l-4 4 .708.708 4-4 .353-.354-.353-.354-4-4z" fill="#616161"/></g><g><path d="M1087 262h10.1a.5.5 0 0 0 0-1H1087a.5.5 0 0 0 0 1zm18.1-1h-8v1h8zm-4.354-3.146l4 4v-.708l-4 4 .708.708 4-4 .353-.354-.353-.354-4-4z" fill="#616161"/></g></g></svg>